<?xml version="1.0" encoding="UTF-8"?>
<svg version="1.1" xmlns="http://www.w3.org/2000/svg" width="2134" height="2134">
<path d="M0 0 C4.03858262 0.00020432 8.07647061 -0.02728063 12.11488819 -0.06154442 C15.27138848 -0.08394791 18.42772367 -0.08783374 21.58429527 -0.08678055 C23.07238889 -0.08910926 24.56048904 -0.09777473 26.04850197 -0.11344528 C38.67451798 -0.23418321 49.98885002 1.58964925 60.59985352 8.78857422 C61.25866516 9.21728317 61.91747681 9.64599213 62.59625244 10.08769226 C64.75030935 11.49775564 66.88674067 12.93185837 69.02172852 14.37060547 C70.55223262 15.3910928 72.08283414 16.41143403 73.61352539 17.43164062 C77.78611544 20.22429485 81.94213895 23.04079224 86.09436035 25.86361694 C104.37224681 38.28492124 122.77035552 50.51646871 141.23950195 62.65112305 C142.54422455 63.50890602 142.54422455 63.50890602 143.87530518 64.38401794 C145.56255979 65.49151561 147.25143786 66.59654464 148.94207764 67.6988678 C152.82172353 70.23380665 156.66191733 72.8026079 160.43774414 75.49023438 C161.12298157 75.97079788 161.80821899 76.45136139 162.51422119 76.94648743 C163.78069437 77.83864273 165.03711906 78.74531657 166.28070068 79.66911316 C169.54952037 81.96388963 169.54952037 81.96388963 173.40917969 81.96826172 C177.13359786 79.69066219 180.7698509 77.32151222 184.36938477 74.85107422 C185.19729523 74.28892212 186.02520569 73.72677002 186.87820435 73.14758301 C188.67412006 71.92788505 190.46868625 70.70619816 192.26205444 69.48275757 C197.0988446 66.18418771 201.94681788 62.9021544 206.79516602 59.62060547 C207.79958237 58.94051926 208.80399872 58.26043304 209.83885193 57.55973816 C222.41656385 49.05638605 235.10381995 40.71987835 247.79736328 32.39086914 C249.59488573 31.21105601 251.39233209 30.03112694 253.18969727 28.85107422 C254.04900345 28.28696335 254.90830963 27.72285248 255.7936554 27.14164734 C260.78851658 23.85689948 265.75735546 20.53779475 270.69750977 17.17138672 C271.25826706 16.79076584 271.81902435 16.41014496 272.39677429 16.01799011 C274.83178102 14.36503837 277.26021308 12.70441024 279.67480469 11.02172852 C289.2419274 4.51041566 298.96630565 0.27823517 310.6184082 0.20947266 C311.26173096 0.20450775 311.90505371 0.19954285 312.56787109 0.19442749 C314.69312643 0.17985449 316.81830642 0.17300206 318.94360352 0.16748047 C320.04833889 0.1632394 320.04833889 0.1632394 321.17539215 0.15891266 C325.09455214 0.14391857 329.0136755 0.13469806 332.93286133 0.13037109 C336.12308491 0.12603393 339.31303078 0.11233111 342.50317383 0.08935547 C365.90062465 -0.07568339 389.1552984 0.23609166 411.95922852 6.18310547 C412.98878662 6.44244873 414.01834473 6.70179199 415.07910156 6.96899414 C462.88145024 19.27569077 507.26761311 46.46664948 538.02172852 85.37060547 C538.90593511 86.45362578 539.79139852 87.53562095 540.67797852 88.61669922 C569.06263082 123.52038676 585.34113064 166.84979908 590.02172852 211.37060547 C590.10971086 212.15708997 590.19769321 212.94357447 590.28834169 213.75389184 C591.9036046 230.06004815 591.9036046 230.06004815 586.73107228 236.90347122 C584.14140225 239.85950614 581.35587392 242.56095218 578.50331116 245.26046753 C577.24737211 246.52155788 575.99585066 247.78706035 574.74836153 249.05651009 C571.33182663 252.50784314 567.85664733 255.89404211 564.36804807 259.2723031 C560.607469 262.93576487 556.90531178 266.65747713 553.19564819 270.37236023 C546.76636422 276.79509246 540.30189758 283.18053333 533.8120594 289.54204941 C524.41677382 298.75212159 515.08007821 308.01982884 505.75685053 317.30277158 C490.61110011 332.38042274 475.42309781 347.41473623 460.20605469 362.42041016 C445.45748004 376.96437377 430.72270191 391.5220201 416.01074219 406.10302734 C415.10479716 407.00089088 414.19885214 407.89875442 413.26545424 408.82382594 C403.36701323 418.63479238 393.47265868 428.44987081 383.5815115 438.26819038 C382.71116204 439.13210069 381.84081257 439.99601099 380.94408889 440.88610039 C375.72377149 446.06781305 375.72377149 446.06781305 370.50388079 451.24995555 C360.33454237 461.34623265 350.15299946 471.42983772 339.94886725 481.49095424 C333.54579883 487.80452192 327.15062076 494.12600049 320.76145459 500.45363645 C316.37559576 504.79614947 311.97956941 509.12798064 307.57497359 513.451483 C304.89198618 516.09049511 302.21978373 518.7402245 299.55049758 521.39308752 C298.33544648 522.59646555 297.11612169 523.79554883 295.89189876 524.98959492 C285.36146837 535.26785038 277.88262 546.33835932 271.02172852 559.37060547 C225.53884788 559.43909863 180.05596195 559.50277854 134.57304382 559.53997803 C133.89957428 559.54053026 133.22610474 559.54108248 132.53222703 559.54165145 C117.89490877 559.55362388 103.25758996 559.56470449 88.62027033 559.57486679 C81.44183374 559.57985601 74.26339731 559.58504224 67.08496094 559.59033203 C66.37063116 559.59085507 65.65630137 559.5913781 64.92032523 559.59191699 C41.77880471 559.60895364 18.63732332 559.63899234 -4.5041735 559.67579435 C-28.2907693 559.71355344 -52.07734344 559.7381539 -75.8639687 559.74626543 C-79.22587454 559.747418 -82.5877803 559.74872055 -85.94968605 559.75011444 C-86.94216492 559.75051898 -86.94216492 559.75051898 -87.95469387 559.75093169 C-99.24919674 559.75594444 -110.54360111 559.77722089 -121.83807359 559.80227134 C-131.88475607 559.82341887 -141.93138046 559.82980494 -151.97808357 559.82461098 C-157.77405881 559.82204961 -163.56983767 559.82596984 -169.36577797 559.84742737 C-174.67665933 559.86694522 -179.98721293 559.86784136 -185.29810963 559.85420105 C-187.21488936 559.8525161 -189.13168986 559.85754566 -191.04842898 559.8701382 C-205.8070078 559.96142585 -217.86113604 558.67574746 -229.97827148 549.37060547 C-230.84452148 548.79310547 -231.71077148 548.21560547 -232.60327148 547.62060547 C-240.19905403 540.42460095 -246.54410919 529.59359281 -247.10707265 518.93112516 C-247.10975551 517.5527242 -247.10975551 517.5527242 -247.11249256 516.14647675 C-247.11695041 515.08289428 -247.12140825 514.01931182 -247.12600118 512.92349958 C-247.12581682 511.75583823 -247.12563245 510.58817687 -247.1254425 509.38513184 C-247.12911919 508.14373585 -247.13279588 506.90233987 -247.13658398 505.62332582 C-247.14570533 502.17472236 -247.15031942 498.72616647 -247.15297329 495.27755547 C-247.15687976 491.55789324 -247.16645877 487.83824475 -247.17518616 484.11859131 C-247.19495484 475.1263431 -247.20502342 466.13409377 -247.21391395 457.14182925 C-247.21830164 452.89765777 -247.2236677 448.65348752 -247.22890282 444.40931702 C-247.24592573 430.27894093 -247.26041215 416.14856561 -247.26765156 402.01818085 C-247.26956123 398.35049946 -247.27148158 394.68281808 -247.2734375 391.01513672 C-247.27392124 390.10363407 -247.27440498 389.19213142 -247.27490338 388.25300747 C-247.28317436 373.54139106 -247.30845654 358.82985675 -247.34101818 344.11827606 C-247.37424686 328.98036649 -247.39211504 313.84249835 -247.3952958 298.70455217 C-247.39744782 290.21935985 -247.40600079 281.73428674 -247.43175697 273.24913025 C-247.45368212 266.00947913 -247.46140965 258.7699761 -247.45179019 251.53029555 C-247.44730571 247.84879873 -247.44877939 244.1676059 -247.46855164 240.48615265 C-247.75775884 183.34179253 -231.43364776 126.82591594 -192.97827148 83.37060547 C-192.0134082 82.24332031 -192.0134082 82.24332031 -191.02905273 81.09326172 C-188.73345465 78.46534849 -186.37611193 75.90475932 -183.97827148 73.37060547 C-183.39045898 72.74879395 -182.80264648 72.12698242 -182.19702148 71.48632812 C-172.19723613 60.99796199 -161.8075362 51.74071943 -149.97827148 43.37060547 C-149.35774902 42.92668457 -148.73722656 42.48276367 -148.09790039 42.02539062 C-118.74832693 21.18522369 -84.57211378 7.62763154 -48.97827148 2.37060547 C-47.85751221 2.19255371 -46.73675293 2.01450195 -45.58203125 1.83105469 C-30.4999988 -0.32671491 -15.20075598 -0.00405309 0 0 Z " fill="#0777DB" transform="translate(706.978271484375,919.62939453125)"/>
<path d="M0 0 C8.61360505 7.86811906 16.915742 16.0310072 25.1839447 24.25979614 C25.91796068 24.9897366 26.65197666 25.71967705 27.40823555 26.47173691 C31.29057893 30.33338575 35.16975384 34.1981862 39.04649353 38.06546021 C43.00237114 42.01028391 46.96979955 45.94327451 50.93994045 49.87373543 C54.03636425 52.94375299 57.12361976 56.02287372 60.20865059 59.10433578 C61.66537912 60.55626347 63.12541724 62.00488 64.58912468 63.44977188 C94.85616816 93.35161987 113.27472295 128.2638514 113.68785095 171.43948364 C113.48940851 217.44638012 92.30888725 251.07297677 60.70767212 282.63804626 C58.89725456 284.45363734 57.08726483 286.26965511 55.27766448 288.0860607 C50.83934656 292.53945081 46.39573928 296.98752752 41.95043779 301.43394551 C36.62170893 306.76451026 31.29875309 312.10082611 25.97585991 317.43721703 C13.11814703 330.326958 0.2503643 343.20662662 -12.61857904 356.08515348 C-18.70872551 362.17997887 -24.79760759 368.27606678 -30.88633979 374.37230498 C-51.73958548 395.25120724 -72.59493666 416.12800297 -93.45756245 436.99753284 C-94.76558938 438.30600303 -96.07361615 439.61447338 -97.38164277 440.92294387 C-98.69275752 442.23449989 -100.00387242 443.54605576 -101.31498748 444.85761148 C-103.94514887 447.48865795 -106.57530568 450.119709 -109.20545959 452.75076294 C-110.18364088 453.7292724 -110.18364088 453.7292724 -111.1815834 454.72754972 C-132.34052199 475.89375435 -153.48712641 497.07222473 -174.62639204 518.25807611 C-196.99155271 540.67243377 -219.36757492 563.07589078 -241.75615281 585.46685904 C-244.21369785 587.92474698 -246.67119891 590.38267889 -249.12866783 592.84064293 C-249.73374331 593.44582995 -250.33881879 594.05101697 -250.9622299 594.67454299 C-260.69412137 604.40873457 -270.41611018 614.15275846 -280.13458937 623.90033858 C-289.90081966 633.69530676 -299.67814314 643.47909161 -309.46678964 653.25165889 C-315.27942449 659.0553868 -321.08361374 664.86726917 -326.87593055 670.69127682 C-331.20423221 675.04139777 -335.5481025 679.37565041 -339.89818361 683.70398613 C-341.65369742 685.45557793 -343.40416377 687.21224636 -345.14899174 688.97448299 C-362.15554461 706.13991044 -362.15554461 706.13991044 -372.62464905 709.68948364 C-373.34820449 709.94250022 -374.07175994 710.19551679 -374.81724131 710.45620054 C-379.69820724 711.90182725 -384.54518377 711.97650607 -389.58551025 711.95690918 C-390.45296995 711.96144029 -391.32042965 711.96597141 -392.214176 711.97063982 C-395.1026017 711.98323615 -397.9908377 711.98166654 -400.87928772 711.98001099 C-402.95787293 711.98599927 -405.03645592 711.99280551 -407.11503601 712.00036621 C-412.74956491 712.01800434 -418.38403303 712.02272072 -424.01858687 712.02399778 C-427.54314219 712.02542135 -431.06768216 712.0296949 -434.59223366 712.03499222 C-446.90065615 712.05348635 -459.20903538 712.06166374 -471.51747131 712.06008911 C-482.97022503 712.05888839 -494.42279009 712.07997888 -505.87549609 712.11157644 C-515.72462031 712.13777631 -525.57368307 712.14845482 -535.42284185 712.14717829 C-541.29794503 712.14666969 -547.17288053 712.15229666 -553.04794884 712.17353439 C-558.57776703 712.19297885 -564.10725869 712.19299877 -569.63708878 712.17850113 C-571.65862445 712.17641953 -573.68018089 712.18107492 -575.70168114 712.19322205 C-592.16811376 712.28570428 -605.5931641 710.7878072 -618.31214905 699.25198364 C-619.07527405 698.40635864 -619.83839905 697.56073364 -620.62464905 696.68948364 C-621.34587952 695.97405396 -621.34587952 695.97405396 -622.0816803 695.24417114 C-629.98294065 686.96285016 -632.7743329 676.25869569 -632.77182007 665.12698364 C-632.77549676 664.25406898 -632.77917344 663.38115431 -632.78296155 662.48178768 C-632.79399173 659.55101373 -632.79784115 656.62027524 -632.801651 653.68948364 C-632.80791628 651.59016304 -632.81456313 649.49084355 -632.82156372 647.39152527 C-632.8426032 640.49085258 -632.85296769 633.59017968 -632.8629303 626.68948364 C-632.86697824 624.31235747 -632.87109517 621.93523141 -632.87528038 619.55810547 C-632.89433373 608.38708809 -632.90856309 597.21607731 -632.91689235 586.04504681 C-632.92665829 573.16045379 -632.95296057 560.27603287 -632.99339324 547.39150047 C-633.02358662 537.42698205 -633.03836439 527.46251287 -633.04167336 517.4979496 C-633.04402064 511.54959097 -633.05293899 505.60141615 -633.07813454 499.65310669 C-633.10147573 494.05195269 -633.10562406 488.45110274 -633.09537315 482.84991264 C-633.09487912 480.80054142 -633.10116033 478.75115493 -633.1149292 476.70182991 C-633.24541563 456.11916875 -628.58575993 442.46776767 -614.04009914 427.60436249 C-610.85728156 424.38580187 -607.64908049 421.19340379 -604.4387207 418.00234985 C-602.65576989 416.21550362 -600.87369334 414.42778468 -599.09241396 412.63927221 C-595.22590305 408.76109626 -591.35329188 404.88917574 -587.47507286 401.0227108 C-581.70774995 395.27281929 -575.95197074 389.51147371 -570.19837714 383.74784817 C-559.91939996 373.45169981 -549.62911022 363.16691737 -539.33403747 352.88686569 C-530.3223842 343.88827577 -521.31468076 334.8857545 -512.3108387 325.87934875 C-511.71306347 325.28141311 -511.11528824 324.68347746 -510.4993986 324.06742255 C-508.07266455 321.64002489 -505.64594991 319.21260782 -503.21926371 316.78516232 C-480.46151387 294.02039084 -457.69252968 271.26688626 -434.91819042 248.51871248 C-414.70156057 228.3251867 -394.49379928 208.12282814 -374.2938385 187.91262817 C-369.12271767 182.73890516 -363.95158828 177.5651907 -358.78037167 172.39156342 C-358.14365988 171.75455419 -357.5069481 171.11754496 -356.85094203 170.46123242 C-339.9555268 153.55819416 -323.05308758 136.66218281 -306.14846522 119.76835299 C-304.32838411 117.94941965 -302.5083053 116.13048401 -300.68823014 114.31154473 C-299.48091751 113.10498735 -298.27359968 111.89843517 -297.06627662 110.69188822 C-288.06823635 101.69949665 -279.07368202 92.70362843 -270.0807476 83.70613098 C-259.8483848 73.46864998 -249.61052574 63.23669983 -239.36555635 53.01183403 C-233.63822309 47.2954519 -227.91496881 41.57505886 -222.19766057 35.84864971 C-217.91938277 31.56450616 -213.63324856 27.28831194 -209.34408004 23.01506883 C-207.61668808 21.29170417 -205.89178137 19.56584388 -204.16970133 17.83717126 C-178.24763404 -8.17558158 -149.05732116 -28.10275613 -111.62464905 -32.31051636 C-110.66945374 -32.42008667 -109.71425842 -32.52965698 -108.7301178 -32.64254761 C-69.92747145 -36.45670026 -29.58185854 -26.04133612 0 0 Z " fill="#0777DB" transform="translate(1649.6246490478516,1046.3105163574219)"/>
<path d="M0 0 C10.63462662 9.78988629 20.2721897 20.03015795 28.82568359 31.68066406 C29.67328797 32.80960926 30.52094425 33.93851549 31.36865234 35.06738281 C54.17648298 65.82579944 68.30611992 101.8821331 73.82568359 139.68066406 C73.95410645 140.55835449 74.0825293 141.43604492 74.21484375 142.34033203 C82.57703455 202.79370862 65.25708495 264.76763209 29.04443359 313.45410156 C22.80970162 321.65804879 15.95902452 329.25417214 8.82568359 336.68066406 C7.54177734 338.02644531 7.54177734 338.02644531 6.23193359 339.39941406 C-33.78163119 380.42598048 -92.08984342 404.63788124 -149.15087891 405.88378906 C-211.35636445 406.52512457 -270.83728734 386.83199949 -316.42041016 343.54785156 C-318.03083912 341.94781246 -319.61003466 340.3256251 -321.17431641 338.68066406 C-321.95806641 337.89691406 -322.74181641 337.11316406 -323.54931641 336.30566406 C-324.41556641 335.43941406 -325.28181641 334.57316406 -326.17431641 333.68066406 C-326.78533203 333.11605469 -327.39634766 332.55144531 -328.02587891 331.96972656 C-362.95520845 298.81861743 -383.09609908 248.61676976 -389.17431641 201.68066406 C-389.2685791 200.99157959 -389.3628418 200.30249512 -389.45996094 199.5925293 C-390.49555575 190.93076986 -390.41806109 182.20395511 -390.42431641 173.49316406 C-390.42499115 172.64818359 -390.42566589 171.80320312 -390.42636108 170.93261719 C-390.40912623 157.31483031 -389.75969267 144.08426352 -387.17431641 130.68066406 C-387.00270996 129.77541992 -386.83110352 128.87017578 -386.65429688 127.9375 C-380.03220755 94.05181324 -366.27720237 61.13558928 -345.17431641 33.68066406 C-344.48595703 32.78089844 -343.79759766 31.88113281 -343.08837891 30.95410156 C-339.04195023 25.78810764 -334.74241415 20.88555241 -330.31494141 16.04394531 C-328.44578734 13.98037194 -326.65108279 11.87551793 -324.86181641 9.74316406 C-291.99946375 -27.68548361 -241.56997838 -50.41316286 -193.17431641 -58.31933594 C-192.45614746 -58.43792969 -191.73797852 -58.55652344 -190.99804688 -58.67871094 C-122.30019963 -69.36751699 -51.22068438 -46.20017049 0 0 Z " fill="#0777DB" transform="translate(1036.17431640625,515.3193359375)"/>
</svg>
